name C:\Users\u0150099\Documents\master_thesis\3dpredictsim\Results\debug\Fal_s1_mtjc4_sc_cspx10_oy2_MTc2_MTPm_k1_d01_MTJm_nl_MG_exp5_table_d01_PF_Natali2010_x5_ls146_ig21.mot
datacolumns 128
datarows 4
range 1.04844674 1.07990015
endheader
time	pelvis_tilt	pelvis_list	pelvis_rotation	pelvis_tx	pelvis_ty	pelvis_tz	hip_flexion_l	hip_adduction_l	hip_rotation_l	hip_flexion_r	hip_adduction_r	hip_rotation_r	knee_angle_l	knee_angle_r	ankle_angle_l	ankle_angle_r	subtalar_angle_l	subtalar_angle_r	mtj_angle_l	mtj_angle_r	mtp_angle_l	mtp_angle_r	lumbar_extension	lumbar_bending	lumbar_rotation	arm_flex_l	arm_add_l	arm_rot_l	arm_flex_r	arm_add_r	arm_rot_r	elbow_flex_l	elbow_flex_r	pro_sup_l	pro_sup_r	glut_med1_l/activation	glut_med2_l/activation	glut_med3_l/activation	glut_min1_l/activation	glut_min2_l/activation	glut_min3_l/activation	semimem_l/activation	semiten_l/activation	bifemlh_l/activation	bifemsh_l/activation	sar_l/activation	add_long_l/activation	add_brev_l/activation	add_mag1_l/activation	add_mag2_l/activation	add_mag3_l/activation	tfl_l/activation	pect_l/activation	grac_l/activation	glut_max1_l/activation	glut_max2_l/activation	glut_max3_l/activation	iliacus_l/activation	psoas_l/activation	quad_fem_l/activation	gem_l/activation	peri_l/activation	rect_fem_l/activation	vas_med_l/activation	vas_int_l/activation	vas_lat_l/activation	med_gas_l/activation	lat_gas_l/activation	soleus_l/activation	tib_post_l/activation	flex_dig_l/activation	flex_hal_l/activation	tib_ant_l/activation	per_brev_l/activation	per_long_l/activation	per_tert_l/activation	ext_dig_l/activation	ext_hal_l/activation	ercspn_l/activation	intobl_l/activation	extobl_l/activation	glut_med1_r/activation	glut_med2_r/activation	glut_med3_r/activation	glut_min1_r/activation	glut_min2_r/activation	glut_min3_r/activation	semimem_r/activation	semiten_r/activation	bifemlh_r/activation	bifemsh_r/activation	sar_r/activation	add_long_r/activation	add_brev_r/activation	add_mag1_r/activation	add_mag2_r/activation	add_mag3_r/activation	tfl_r/activation	pect_r/activation	grac_r/activation	glut_max1_r/activation	glut_max2_r/activation	glut_max3_r/activation	iliacus_r/activation	psoas_r/activation	quad_fem_r/activation	gem_r/activation	peri_r/activation	rect_fem_r/activation	vas_med_r/activation	vas_int_r/activation	vas_lat_r/activation	med_gas_r/activation	lat_gas_r/activation	soleus_r/activation	tib_post_r/activation	flex_dig_r/activation	flex_hal_r/activation	tib_ant_r/activation	per_brev_r/activation	per_long_r/activation	per_tert_r/activation	ext_dig_r/activation	ext_hal_r/activation	ercspn_r/activation	intobl_r/activation	extobl_r/activation	
          1.04844674	         -2.92907213	         -0.95244274	          2.18924325	          1.39443417	          0.91063625	         -0.00311276	        -17.65999571	          2.11694812	          8.53011660	         28.56275507	          2.42678142	         -2.28989817	         -6.58254127	         -9.81916033	          6.81885471	          9.48840838	          3.59875738	          2.39147373	         -1.80631239	          2.55475300	         14.19012449	         -7.59552881	         -4.17404147	          0.39240423	         -1.86602758	          4.40846276	        -13.74021403	         19.38239029	         -4.87970652	        -13.46793037	          5.07010468	         32.73522466	         26.47254784	         86.51662706	         86.51662706	          0.43757617	          0.09522136	          0.05873714	          0.57931863	          0.21531446	          0.09522218	          0.05000455	          0.05000059	          0.05000043	          0.08530076	          0.09858694	          0.05000036	          0.05000038	          0.05000091	          0.05000292	          0.05000149	          0.55454822	          0.05000160	          0.05000209	          0.05114128	          0.05001638	          0.05000460	          0.31603474	          0.75800591	          0.05000132	          0.05000646	          0.05628463	          0.22560901	          0.05000140	          0.05000133	          0.05000125	          0.38669740	          0.47611858	          0.33207106	          0.40636958	          0.28384908	          0.43139369	          0.05000006	          0.06228688	          0.19738170	          0.05000029	          0.05873769	          0.11984139	          0.05000007	          0.05000008	          0.05000006	          0.05000109	          0.05000139	          0.05000270	          0.05000219	          0.05000221	          0.05000186	          0.11878934	          0.06692100	          0.35185190	          0.06852647	          0.05000269	          0.16078063	          0.16784905	          0.11320656	          0.13046981	          0.10650407	          0.05000947	          0.05322996	          0.15192362	          0.05000363	          0.05000517	          0.07133664	          0.05000661	          0.05329007	          0.12964217	          0.05000775	          0.05000100	          0.05000478	          0.05000460	          0.05000484	          0.05000376	          0.06056241	          0.05000095	          0.05000032	          0.05596767	          0.05388752	          0.05000566	          0.30278603	          0.05873672	          0.07913836	          0.20780000	          0.56999502	          0.24320661	          0.06900024	          0.07302456	          0.09720296	
          1.05893121	         -2.93017584	         -1.03202864	          2.42786920	          1.41064636	          0.91034574	         -0.00286841	        -17.56516812	          1.88469864	          8.36806160	         28.14010584	          2.79350271	         -2.21809759	         -8.44389073	         -9.80353582	          6.28706819	          9.19631329	          4.68297431	          2.34085159	         -2.87506928	          2.58658239	         17.17869618	         -7.60941941	         -4.01973742	          0.58640756	         -1.98424994	          4.07691467	        -13.69031423	         19.31589760	         -5.53567702	        -13.45040632	          4.63044631	         33.86082661	         26.10510051	         86.51662706	         86.51662706	          0.38181448	          0.08105736	          0.05000012	          0.49314684	          0.18328684	          0.08105807	          0.05000450	          0.05000074	          0.05000044	          0.07261243	          0.08392255	          0.08948627	          0.05000185	          0.05000106	          0.05000340	          0.05000420	          0.47206247	          0.05002194	          0.05000059	          0.05000177	          0.05000116	          0.05000123	          0.26902509	          0.72561260	          0.05000008	          0.05000029	          0.05000009	          0.19205012	          0.08101631	          0.07915613	          0.07046403	          0.32917671	          0.40529666	          0.28625238	          0.38142091	          0.25506101	          0.39765491	          0.05000001	          0.05873750	          0.16802150	          0.05000041	          0.05000057	          0.10201520	          0.05000004	          0.05000009	          0.05000124	          0.05873712	          0.05873709	          0.05000075	          0.05873708	          0.05873711	          0.05873689	          0.10117326	          0.05873762	          0.31819083	          0.06883458	          0.05000065	          0.13686659	          0.22330383	          0.09636839	          0.13694766	          0.13801671	          0.05000331	          0.05001911	          0.16028884	          0.05871077	          0.05000401	          0.11256547	          0.05000036	          0.05000027	          0.27325430	          0.05000176	          0.07366147	          0.05000010	          0.05000141	          0.05000118	          0.05000095	          0.06055735	          0.05551492	          0.05120898	          0.05000330	          0.06074043	          0.05925990	          0.32817521	          0.05000040	          0.10686964	          0.25465836	          0.61061750	          0.31481713	          0.05873662	          0.06216229	          0.08274420	
          1.06941568	         -2.92900819	         -1.12186798	          2.65602475	          1.42711912	          0.91009565	         -0.00259770	        -17.36901814	          1.63079410	          8.16263985	         27.72264417	          3.13228064	         -2.13132621	        -10.44218640	        -10.36133515	          5.53970227	          8.58060255	          5.83676239	          2.29551816	         -4.02015218	          2.64619556	         20.39156192	         -7.68916635	         -3.84937555	          0.79112273	         -2.09411308	          3.67136574	        -13.64716126	         19.20896900	         -6.20797634	        -13.45607376	          4.37842099	         35.02697641	         25.74000963	         86.51662706	         86.51662706	          0.32502026	          0.06900029	          0.05873701	          0.41979215	          0.15602328	          0.06900092	          0.05001001	          0.05000082	          0.05000141	          0.06181148	          0.07143946	          0.14417948	          0.21847092	          0.06899388	          0.05004554	          0.05205192	          0.52829945	          0.07723467	          0.05000968	          0.05000634	          0.05000457	          0.05000743	          0.22900804	          0.66585627	          0.05000399	          0.05873790	          0.05873708	          0.17137756	          0.15436964	          0.15436983	          0.13927647	          0.28021213	          0.34500936	          0.24367274	          0.33491982	          0.21712143	          0.33850521	          0.05000006	          0.05000042	          0.14302856	          0.05000014	          0.05000005	          0.08684062	          0.06115483	          0.06900090	          0.05183261	          0.05000010	          0.05000021	          0.09406367	          0.05000017	          0.05000025	          0.05000032	          0.08612393	          0.05000061	          0.27086048	          0.05859617	          0.06900500	          0.11773706	          0.20831066	          0.46812215	          0.30529097	          0.13748046	          0.05000035	          0.08105356	          0.13645028	          0.05000308	          0.05873667	          0.18252547	          0.06900100	          0.06900109	          0.57224191	          0.15909331	          0.09355086	          0.06900093	          0.05022817	          0.15295449	          0.12639178	          0.06900149	          0.06902296	          0.06900088	          0.05000008	          0.06900120	          0.06900121	          0.38994424	          0.13017535	          0.09097303	          0.41095178	          0.62214415	          0.32279092	          0.05000002	          0.05291575	          0.07043614	
          1.07990015	         -2.92596810	         -1.24046024	          2.87191460	          1.44380916	          0.90986295	         -0.00234203	        -17.07711836	          1.34624437	          7.91682661	         27.23434288	          3.38926298	         -1.95979283	        -12.54615441	        -11.20762573	          4.51085379	          7.71826040	          6.98208056	          2.24890021	         -5.17933838	          2.70663836	         23.73887603	         -7.83990375	         -3.66452585	          1.02672924	         -2.19311685	          3.19831688	        -13.60712227	         19.08351879	         -6.88222900	        -13.49177219	          4.29826152	         36.23350524	         25.35947250	         86.51662706	         86.51662706	          0.29004852	          0.05873667	          0.05000020	          0.35734920	          0.13281513	          0.05873720	          0.05000323	          0.05000140	          0.05000107	          0.05261719	          0.06081321	          0.20023149	          0.40358483	          0.05873721	          0.05873169	          0.13089139	          0.54146241	          0.06899674	          0.05000261	          0.05001452	          0.05001259	          0.05001919	          0.19494348	          0.64224710	          0.05000075	          0.05000127	          0.05000012	          0.14588543	          0.13140766	          0.13140777	          0.11855950	          0.23853097	          0.29368971	          0.20742675	          0.28510105	          0.18482499	          0.28815324	          0.08586217	          0.05000062	          0.12175429	          0.05000014	          0.05000098	          0.07392326	          0.08659160	          0.05873712	          0.05000088	          0.36448852	          0.05000045	          0.44249101	          0.19126575	          0.05000121	          0.37277143	          0.10704575	          0.05001715	          0.23195586	          0.05000078	          0.05874079	          0.10022405	          0.36456212	          0.39848990	          0.25988419	          0.24094280	          0.05000098	          0.06900185	          0.15959366	          0.05000026	          0.05000027	          0.25428547	          0.05873733	          0.05873734	          0.48712180	          0.13542857	          0.16010393	          0.05873717	          0.12078371	          0.13020359	          0.10759185	          0.05873764	          0.05875595	          0.05873713	          0.05000040	          0.05873746	          0.05873758	          0.47205489	          0.11081221	          0.08673432	          0.34982361	          0.72679133	          0.60139878	          0.05000037	          0.08528760	          0.05995888	
